<svg width="40" height="40" viewBox="0 0 40 40" fill="none" xmlns="http://www.w3.org/2000/svg">
<path fill-rule="evenodd" clip-rule="evenodd" d="M40 20C40 31.0457 31.0457 40 20 40C8.95431 40 0 31.0457 0 20C0 8.95431 8.95431 0 20 0C31.0457 0 40 8.95431 40 20ZM20.6543 31.1271H20.6592C27.2162 31.1244 32.5492 25.7902 32.5518 19.2346C32.553 16.0569 31.3172 13.069 29.0718 10.8212C26.8265 8.57322 23.8405 7.33471 20.6591 7.33333C14.104 7.33333 8.76898 12.6681 8.76638 19.2252C8.76548 21.3212 9.31311 23.3671 10.3538 25.1707L8.66667 31.3333L14.9711 29.6795C16.7082 30.627 18.6639 31.1264 20.6543 31.1271Z" fill="#6AA650"/>
<path fill-rule="evenodd" clip-rule="evenodd" d="M15.6233 27.7407L15.2623 27.5265L11.5212 28.5079L12.5198 24.8603L12.2847 24.4863C11.2953 22.9126 10.7727 21.0936 10.7734 19.2258C10.7756 13.7759 15.2099 9.34198 20.6622 9.34198C23.3024 9.3429 25.7843 10.3724 27.6505 12.2408C29.5168 14.1092 30.5439 16.5926 30.5429 19.2339C30.5407 24.6842 26.1065 29.1186 20.6584 29.1186H20.6543C18.8806 29.1179 17.1409 28.6413 15.6233 27.7407ZM26.2428 21.7949C26.45 21.8951 26.59 21.9627 26.6498 22.0625C26.724 22.1864 26.724 22.7814 26.4765 23.4756C26.2288 24.1697 25.0417 24.8032 24.4707 24.8885C23.9588 24.965 23.3109 24.997 22.5991 24.7707C22.1675 24.6338 21.614 24.451 20.905 24.1448C18.1193 22.9419 16.2366 20.2419 15.8808 19.7316C15.8559 19.6958 15.8385 19.6708 15.8287 19.6578L15.8263 19.6546C15.6691 19.4448 14.6154 18.0389 14.6154 16.5839C14.6154 15.2151 15.2877 14.4976 15.5972 14.1674C15.6184 14.1448 15.6379 14.124 15.6554 14.1049C15.9278 13.8074 16.2497 13.733 16.4478 13.733C16.6459 13.733 16.8442 13.7348 17.0173 13.7435C17.0387 13.7446 17.0609 13.7445 17.0839 13.7443C17.2571 13.7433 17.473 13.7421 17.6859 14.2536C17.7679 14.4505 17.8878 14.7424 18.0142 15.0502C18.2699 15.6727 18.5524 16.3605 18.6021 16.4601C18.6764 16.6088 18.7259 16.7823 18.6269 16.9807C18.612 17.0104 18.5983 17.0385 18.5851 17.0653C18.5107 17.2172 18.456 17.3289 18.3297 17.4764C18.2801 17.5343 18.2288 17.5968 18.1775 17.6593C18.0752 17.7838 17.973 17.9083 17.884 17.997C17.7352 18.1452 17.5804 18.3059 17.7537 18.6034C17.9271 18.9009 18.5234 19.874 19.4068 20.662C20.3564 21.509 21.1818 21.867 21.6001 22.0484C21.6818 22.0839 21.748 22.1126 21.7965 22.1369C22.0935 22.2857 22.2669 22.2608 22.4403 22.0625C22.6136 21.8642 23.1831 21.1948 23.3812 20.8973C23.5792 20.5999 23.7774 20.6495 24.0497 20.7486C24.3222 20.8479 25.7831 21.5667 26.0803 21.7154C26.1383 21.7444 26.1925 21.7706 26.2428 21.7949Z" fill="#6AA650"/>
</svg>
